<mxfile host="Electron" modified="2024-04-11T14:46:18.757Z" agent="Mozilla/5.0 (Windows NT 10.0; Win64; x64) AppleWebKit/537.36 (KHTML, like Gecko) draw.io/24.1.0 Chrome/120.0.6099.109 Electron/28.1.0 Safari/537.36" etag="tcImdmsKexfuNpXaQjYK" version="24.1.0" type="device">
  <diagram name="Page-1" id="tQALGRtWZwikMlib1rIW">
    <mxGraphModel dx="675" dy="390" grid="0" gridSize="10" guides="1" tooltips="1" connect="1" arrows="1" fold="1" page="0" pageScale="1" pageWidth="827" pageHeight="1169" math="0" shadow="0">
      <root>
        <mxCell id="0" />
        <mxCell id="1" parent="0" />
        <mxCell id="jC7cCKSampaYLbDwC7Wh-1" value="" style="shape=flexArrow;endArrow=classic;startArrow=classic;html=1;rounded=0;" edge="1" parent="1">
          <mxGeometry width="100" height="100" relative="1" as="geometry">
            <mxPoint x="89" y="270" as="sourcePoint" />
            <mxPoint x="674" y="270" as="targetPoint" />
          </mxGeometry>
        </mxCell>
        <mxCell id="jC7cCKSampaYLbDwC7Wh-2" value="&lt;div style=&quot;font-size: 14px;&quot;&gt;&lt;b style=&quot;&quot;&gt;&lt;font style=&quot;font-size: 14px;&quot;&gt;Trop simple / Pas assez de pression&amp;nbsp;&lt;br&gt;&lt;br&gt;&lt;/font&gt;&lt;/b&gt;&lt;/div&gt;&lt;div style=&quot;&quot;&gt;&lt;font style=&quot;font-size: 12px;&quot;&gt;Tendance à considérer la tâche comme inutile ou pouvant être repoussée&amp;nbsp;&lt;/font&gt;&lt;/div&gt;" style="rounded=1;whiteSpace=wrap;html=1;fillColor=#fff2cc;strokeColor=#d6b656;" vertex="1" parent="1">
          <mxGeometry x="93" y="322" width="194" height="117" as="geometry" />
        </mxCell>
        <mxCell id="jC7cCKSampaYLbDwC7Wh-3" value="&lt;div style=&quot;font-size: 14px;&quot;&gt;&lt;b style=&quot;&quot;&gt;&lt;font style=&quot;font-size: 14px;&quot;&gt;Trop complexe / Beaucoup de pression&amp;nbsp;&lt;br&gt;&lt;br&gt;&lt;/font&gt;&lt;/b&gt;&lt;/div&gt;&lt;div style=&quot;&quot;&gt;&lt;font style=&quot;font-size: 12px;&quot;&gt;Tendance à se décourager, à ne pas savoir par où commencer&amp;nbsp;&lt;/font&gt;&lt;/div&gt;" style="rounded=1;whiteSpace=wrap;html=1;fillColor=#f8cecc;strokeColor=#b85450;" vertex="1" parent="1">
          <mxGeometry x="478" y="322" width="194" height="117" as="geometry" />
        </mxCell>
        <mxCell id="jC7cCKSampaYLbDwC7Wh-4" value="&lt;div style=&quot;font-size: 14px;&quot;&gt;&lt;b style=&quot;&quot;&gt;&lt;font style=&quot;font-size: 14px;&quot;&gt;Tâche utile et atteingnable avec un rythme de travail acceptable&lt;br&gt;&lt;/font&gt;&lt;/b&gt;&lt;/div&gt;" style="rounded=1;whiteSpace=wrap;html=1;fillColor=#d5e8d4;strokeColor=#82b366;" vertex="1" parent="1">
          <mxGeometry x="299" y="322" width="168" height="117" as="geometry" />
        </mxCell>
        <mxCell id="jC7cCKSampaYLbDwC7Wh-5" value="Procrastination,&lt;div&gt;sentiment de ne pas apprendre ou de réaliser des activités utiles&lt;/div&gt;" style="rounded=1;whiteSpace=wrap;html=1;fillColor=#f5f5f5;strokeColor=#666666;fontColor=#333333;" vertex="1" parent="1">
          <mxGeometry x="122.5" y="241" width="135" height="60" as="geometry" />
        </mxCell>
        <mxCell id="jC7cCKSampaYLbDwC7Wh-8" value="&lt;b&gt;Efficacité maximale&lt;/b&gt;&lt;div&gt;&lt;b&gt;Travail utile&lt;/b&gt;&lt;/div&gt;" style="rounded=1;whiteSpace=wrap;html=1;fillColor=#f5f5f5;strokeColor=#666666;fontColor=#333333;" vertex="1" parent="1">
          <mxGeometry x="318" y="239" width="120" height="60" as="geometry" />
        </mxCell>
        <mxCell id="jC7cCKSampaYLbDwC7Wh-9" value="Procrastination, stress et perte de motivation" style="rounded=1;whiteSpace=wrap;html=1;fillColor=#f5f5f5;strokeColor=#666666;fontColor=#333333;" vertex="1" parent="1">
          <mxGeometry x="505" y="239" width="120" height="60" as="geometry" />
        </mxCell>
      </root>
    </mxGraphModel>
  </diagram>
</mxfile>
